<svg version="1.1" id="Layer_1" xmlns="http://www.w3.org/2000/svg" x="0" y="0" viewBox="0 0 2591.52 1964.01" style="enable-background:new 0 0 2591.52 1964.01" xml:space="preserve">
  <style>
    .st0{fill:#fff}.st1{fill:#650000}.st2{opacity:.3}.st3{fill:#fc9500}.st4{opacity:.6}.st7{opacity:.7}
  </style>
  <path class="st0" d="M2383.46 1704.02c52 32.47 37.33 68.71 0 106.17 82.39 54.27 16.75 134.91-67.05 92.3-57.57 29.35-117.36 27.42-179.03 0-26.57 31.95-65.07 24.82-109 0-45.72 29.63-104.85 27.18-174.41 0-30.62 33.69-71.96 23.17-116.36 0-33.88 21.89-67.34 35.77-100.18 40.63-48.65 7.22-96.07-5.28-142.08-40.63-35.2 31.33-75.83 25.43-119.24 0-33.83 64.74-75.97 48.18-121.41 0-45.82 29.07-90.84 27.32-135.24 0-24.96 30.25-52.24 26.19-81.02 0-24.63 31.24-57.85 25.2-95.55 0-51.67 48.6-101.74 46.1-149.82 0-21.56 33.6-50.96 22.89-82.58 0-34.54 30.91-73.8 25.53-115.61 0-42.94 61.72-87.16 50.92-132.13 0-26.28 30.67-55.82 25.62-87.3 0-64.98 59.83-87.49 52.66-154.54 0-120.33 71.68-135.66-88.76-42.47-82.86-49.55-41.29-56.63-160.44-1.18-187.95-29.49-48.79-46.2-94.61 0-125.85-33.17-51.01-42.37-98.48 0-138.4-67.81-63.66-91.36-120.85.28-167.99l1489.1-17.74 722.77-8.64c88.95 67.43 76.3 129.58-5.95 195.92 59.17 31.24 30.91 80.22 0 129.77 101.27 56.91 68.33 129.06 0 205.27z"/>
  <path class="st1" d="M1611.49 1947.56c-40.31 0-79.22-14.02-116.04-41.85-31.97 27.36-70.73 27.45-118.36.24-13.66 25.24-29.05 38.72-47 41.2-21.5 2.99-46.33-10.6-75.81-41.46-43.91 27.13-89.07 27.14-134.3.04-10.9 12.61-22.75 19.45-35.27 20.34-14.49 1.06-29.51-5.51-46-19.98-22.73 26.93-54.04 26.79-95.57-.43-50.13 46.25-100.44 46.47-149.66.67-7.63 10.91-16.72 17.42-27.05 19.38-15.08 2.86-32.35-3.33-55.8-20.03-31.71 27.33-69.39 27.38-115.06.16-18.75 26.26-38.86 40.19-59.79 41.41-22.99 1.33-46.95-12.08-73.03-40.99-24.4 26.83-52.96 26.67-87.2-.47-63.94 58.39-88.55 51.63-154.85-.27-49.64 29.01-76.56 16.66-88.24 6.63-16.33-14.05-21.48-39.23-12.52-61.24 8.54-20.97 27.67-33.32 51.9-33.9-25.66-25.57-40.18-74.42-34.87-119.53 3.76-32.02 16.79-55.6 36.78-66.77-27.54-46.06-45.77-92.87.1-125.55-36.38-56.97-36.45-102.06-.21-137.7-43.89-41.64-62.42-74.79-58.3-104.2 3.53-25.11 23.5-46.7 61.06-66.03l.52-.27h.59l1489.1-17.74 723.63-8.64.68.52c41.51 31.46 61.92 62.22 62.4 94 .5 33.05-20.9 66.93-65.39 103.51 16.96 9.65 27.08 21.28 30.91 35.47 7.85 29.08-13.73 64.71-31.87 93.81 37.13 21.37 57.47 45.55 62.16 73.89 5.99 36.17-13.1 76.87-61.84 131.73 19.79 12.92 30.31 26.89 32.12 42.64 2.16 18.74-8.04 39.02-32.05 63.67 40.19 27.71 41.59 59.88 30.31 79.29-14.6 25.13-54.96 39.18-101.25 16.2-55.23 27.75-115.21 27.83-178.34.24-24.42 28-59.34 27.94-109.61-.12-44.37 28.06-101.26 28.08-173.81.03-33.85 35.69-80.01 19.03-116.91-.06-34.24 21.94-67.86 35.46-99.95 40.21a183.36 183.36 0 0 1-26.31 1.95zm-356.4-48.29 1.41 1.5c28.93 30.66 52.85 44.28 72.9 41.43 16.77-2.31 31.32-15.68 44.48-40.87l1.22-2.32 2.27 1.32c47.33 27.74 85.39 27.82 116.32.29l1.54-1.38 1.64 1.26c44.11 33.89 91.26 47.39 140.19 40.14 31.76-4.71 65.13-18.25 99.19-40.26l1.23-.79 1.29.67c54.12 28.24 88.03 28.4 113.36.54l1.16-1.27 1.6.62c72.4 28.3 128.71 28.37 172.14.23l1.27-.82 1.32.74c49.36 27.88 82.99 28.06 105.85.58l1.21-1.46 1.73.77c62.74 27.9 122.26 27.91 176.88.06l1.14-.58 1.13.58c44.03 22.38 82.23 9.67 95.8-13.69 10.42-17.92 8.48-48.12-31.25-74.29l-2.55-1.68 2.16-2.17c24.38-24.47 34.78-44.08 32.75-61.72-1.7-14.79-12.27-28.06-32.3-40.57l-2.52-1.57 1.99-2.22c48.41-54 68.3-95.23 62.59-129.78-4.52-27.32-24.79-50.75-61.95-71.64l-2.28-1.28 1.39-2.22c21.96-35.21 39.58-66.44 32.67-92.07-3.69-13.67-14.06-24.84-31.71-34.16l-3.36-1.77 2.96-2.38c45.18-36.45 66.9-69.78 66.42-101.89-.45-29.98-20-59.28-59.74-89.58l-721.91 8.62-1488.51 17.74c-35.67 18.45-54.6 38.74-57.87 62-3.94 28.09 14.7 60.39 58.67 101.67l1.94 1.82-1.93 1.83c-37.04 34.89-36.92 77.86.38 135.21l1.34 2.06-2.03 1.38c-45.73 30.92-26.67 77.14.74 122.49l1.41 2.32-2.43 1.21c-19.79 9.81-32.72 32.59-36.43 64.14-5.46 46.39 10.56 96.71 38.1 119.65l5.88 4.9-7.64-.48c-25.54-1.6-45.11 9.55-53.7 30.66-8.16 20.05-3.58 42.9 11.15 55.56 10.76 9.25 35.98 20.54 83.9-8l1.47-.88 1.35 1.06c67.3 52.86 87.73 58.66 151.3.13l1.59-1.46 1.68 1.37c33.8 27.52 60.43 27.61 83.82.31l1.87-2.18 1.9 2.15c25.73 29.14 48.91 42.61 70.88 41.41 19.82-1.15 39.11-15 57.32-41.18l1.34-1.93 2.01 1.23c45.17 27.58 82.02 27.67 112.64.27l1.5-1.34 1.63 1.18c22.77 16.47 39.8 22.94 53.56 20.34 9.82-1.86 18.15-8.29 25.44-19.66l1.64-2.55 2.19 2.1c48.77 46.76 96.65 46.76 146.38-.01l1.45-1.36 1.66 1.1c41.38 27.67 70.68 27.84 92.2.53l1.66-2.11 1.99 1.81c15.97 14.53 30.81 21.42 44.24 20.45 11.64-.83 22.79-7.63 33.16-20.2l1.39-1.68 1.85 1.14c45.31 27.88 88.67 27.89 132.59.02l1.7-1.14z"/>
  <path class="st1" d="M1611.12 1964.01c-40.01 0-78.55-12.65-115.39-37.94-31.94 21.58-69.72 22.08-112.67 1.49-14.47 21.13-31.49 33.15-50.77 35.82-31.13 4.3-59.65-16.73-80.82-37.26-42.24 22.05-85.4 22.03-128.64-.08-11.37 9.93-23.76 15.42-37 16.36-14.99 1.07-30.34-3.85-45.95-14.62-19.94 16.06-50.36 23.6-95.06-1.9-49.59 40.56-100.87 41.66-149.84 3.29-7.59 6.63-16.13 10.86-25.54 12.64-20.85 3.95-41.18-5.09-58.22-15.94-31.97 21.96-69.3 22.32-111.31 1.05-19.41 23.05-40.62 35.37-63.22 36.67-24.63 1.39-49.26-9.92-74.78-34.59-18.84 13.93-47.5 22.41-85.32-2.28-61.08 52.46-93.84 46.59-157.44-1.71-54.57 27.88-85.97 9.36-97.38-.44-21.6-18.56-28.59-51.39-17.02-79.82 7.44-18.27 20.88-31.51 38.22-38.5-18.1-30.05-26.93-71.18-22.29-110.66 3.53-30.03 14.49-53.96 31.45-69.37-18.27-32.63-40.37-85.22.42-124.65-29.44-52.11-29.95-96.84-1.55-133.33-28.16-28.55-57.54-66.97-51.89-107.23 4.31-30.77 27.14-56.39 69.79-78.33 9.28-4.76 20.65-1.11 25.42 8.15 4.77 9.27 1.12 20.65-8.15 25.42-30.51 15.69-47.23 32.51-49.67 49.99-3.09 22.04 14.46 50.64 53.66 87.42a18.873 18.873 0 0 1 .03 27.5c-21.92 20.66-38.73 50.42 2.88 114.39 5.61 8.63 3.27 20.16-5.25 25.92-24.79 16.76-31.82 38.56 5.58 100.43a18.86 18.86 0 0 1 1.97 15.04c-1.47 5.07-5 9.29-9.73 11.63-14.45 7.17-24.45 25.91-27.45 51.41-4.77 40.61 9.12 85.82 32.32 105.15a18.88 18.88 0 0 1 5.45 21.48c-3.02 7.58-10.6 12.31-18.73 11.86-24.84-1.61-34.12 12.16-37.5 20.49-5.46 13.41-2.66 28.95 6.66 36.96 12.65 10.87 36.28 7.34 64.84-9.67 6.7-4 15.19-3.45 21.33 1.38 62.77 49.35 74.06 52.58 130.09.96 6.9-6.37 17.43-6.67 24.71-.76 34.3 27.93 49.49 15.87 61.03 2.37 3.55-4.16 8.73-6.57 14.2-6.61h.15c5.42 0 10.57 2.32 14.15 6.39 21.87 24.78 41.34 37.03 57.64 35.91 14.56-.84 29.64-12.34 44.83-34.19 5.71-8.21 16.81-10.54 25.33-5.33 50.33 30.72 76.24 17.23 93.18 2.05 6.62-5.92 16.48-6.44 23.67-1.22 18.33 13.29 32.1 19.17 40.9 17.52 1.9-.36 7.68-1.45 14.71-12.43 3.05-4.75 8.06-7.89 13.67-8.56 5.62-.64 11.22 1.22 15.29 5.12 42.37 40.64 80.56 40.6 123.84-.12 6.4-6.03 16.11-6.84 23.43-1.94 48.05 32.17 63.01 13.14 70.21 4.01a18.85 18.85 0 0 1 13.28-7.13c5.2-.43 10.39 1.32 14.26 4.85 8.6 7.83 21.16 16.96 32.03 16.24 6.99-.5 14.29-5.31 21.7-14.29 6-7.27 16.44-9.01 24.46-4.06 39.45 24.3 77.15 24.35 115.25.14a18.88 18.88 0 0 1 23.86 2.99c30.69 32.59 48.88 37.8 58.7 36.45 10.99-1.51 21.83-12.37 32.21-32.25 2.39-4.58 6.56-7.98 11.52-9.4 4.98-1.43 10.29-.76 14.76 1.85 53.26 31.2 79.91 17.56 97.18 2.19 6.77-6.03 16.87-6.38 24.05-.87 67.36 51.75 139.48 51.46 220.49-.89a18.883 18.883 0 0 1 18.98-.88c46.9 24.49 74.05 25.65 93.69 4.04a18.866 18.866 0 0 1 20.84-4.88c67.13 26.24 118.56 26.82 157.22 1.74a18.91 18.91 0 0 1 19.57-.6c53.58 30.31 73.69 18.25 85.23 4.37 5.41-6.5 14.49-8.61 22.19-5.18 58.79 26.17 112.04 26.3 162.77.43a18.836 18.836 0 0 1 17.14-.01c35.06 17.83 64.39 9.54 74.2-7.31 9.12-15.7-.88-35.77-26.1-52.38a18.875 18.875 0 0 1-8.39-13.83c-.58-5.63 1.4-11.24 5.4-15.25 20.01-20.11 29.46-36.36 28.09-48.31-1.08-9.38-9.39-18.97-24.7-28.54a18.87 18.87 0 0 1-4.05-28.61c44.83-49.98 63.47-86.88 58.63-116.14-3.65-22.11-21.26-41.76-53.83-60.06a18.871 18.871 0 0 1-6.76-26.45c16.21-25.96 36.38-58.27 30.76-79.11-2.44-9.05-10.15-16.89-23.56-23.97a18.876 18.876 0 0 1-9.98-14.87c-.61-6.32 2-12.52 6.94-16.51 41-33.08 60.74-62.16 60.33-88.92-.37-24.43-18.52-50.42-53.93-77.26-8.31-6.29-9.94-18.13-3.64-26.45 6.29-8.31 18.12-9.94 26.45-3.64 45.78 34.69 68.3 69.61 68.87 106.77.51 33.9-17.67 67.61-55.46 102.58 10.3 9.38 17.14 20.22 20.44 32.44 8.3 30.79-7.93 63.91-25.24 92.77 32.31 21.86 51.08 47.54 55.87 76.52 7.79 47.19-22.28 93.91-54.22 131.92 14.52 12.92 22.77 27.39 24.59 43.2 2.8 24.26-10.07 46.3-24.47 63.63 32.55 29.91 34.73 65.16 20.62 89.43-17.52 30.16-63.09 48.36-115.24 26.06-54.72 25.17-113.38 25.65-174.69 1.46-27.61 23.91-65.54 23.69-113.09-.67-45.11 24.48-102.31 24.52-170.36.14-40.86 33.9-92.27 13.54-119.91-.14-43.86 26.57-86.42 39.86-127.42 39.86z"/>
  <g class="st2">
    <path class="st1" d="M2383.46 1704.02c52 32.47 37.33 68.71 0 106.17 82.39 54.27 16.75 134.91-67.05 92.3-57.57 29.35-117.36 27.42-179.03 0-26.57 31.95-65.07 24.82-109 0-45.72 29.63-104.85 27.18-174.41 0-30.62 33.69-71.96 23.17-116.36 0-33.88 21.89-67.34 35.77-100.18 40.63-4.62-7.08-7.17-11.04-7.17-11.04 53.84-38.51 49.59-108.2 0-130.52 49.92-15.76 37.42-70.36 8.26-89.66 59.6-36.19 93.01-107.73-8.26-164.64 30.91-49.5 59.17-98.53 0-129.77 82.2-66.35 94.89-128.49 5.95-195.92 0 0 10.81-15.86 30.44-39.87l722.77-8.64c88.95 67.43 76.3 129.58-5.95 195.92 59.17 31.24 30.91 80.22 0 129.77 101.26 56.91 68.32 129.06-.01 205.27z"/>
  </g>
  <path class="st3" d="M2482.29 737.66c-4.46-2.4-9.03-4.74-13.83-6.86.78-18.29.89-36.24.28-53.86-1.17-38.08-5.35-74.49-12.32-109.01-7.36-36.75-17.9-71.37-31.28-103.77a520.337 520.337 0 0 0-20.35-43.66c-14.55-27.71-31.34-53.42-50.18-77.12-63.34-79.74-149.55-135.83-249.63-163.43-85.65-23.59-181.44-26.32-281.86-5.02-15.39 3.29-30.84 7.08-46.39 11.49-2.73.72-5.46 1.56-8.2 2.34C1540.7-86.69 1432.8-4.95 1391.65 274.41l-.06-.06c-3.51-2.01-7.03-3.96-10.59-5.85-6.97-3.79-14-7.53-21.02-11.1-340.7-174.52-721.2-100.2-927.62 117.43h-.06c-63.34 66.8-110.35 147.09-134.71 237.87-15.56 57.82-21.91 119.88-17.45 185.46-11.43-3.79-22.58-6.97-33.4-9.53h-.06c-4.52-1.06-8.98-2.06-13.33-2.9 0 0-.06 0-.17-.06-.84-.17-1.67-.33-2.51-.45-48.34-9.14-89.66-6.02-123.67 5.97-.11.06-.17.11-.28.11-13.1 4.57-25.09 10.54-35.96 17.62-35.69 23.03-59.5 57.99-70.65 98.03l-.11.22c-17.68 63.84-3.29 140.51 46.22 202.18 0 0 .06 0 .06.06.78.95 1.51 1.9 2.29 2.79.28.33.56.67.84 1 11.65 13.94 25.15 27.1 40.54 39.09.22.11.39.28.56.39 3.23 2.56 6.58 5.07 10.04 7.42.39.28.56.39.56.39 13.88 9.81 29.16 18.74 45.83 26.49h.06c25.37 11.82 53.97 21.13 85.93 27.1 23.03 4.29 47.79 6.91 74.27 7.53h1779.17c264.41-1.62 352.45-53.97 435.09-160.36 69.23-89.18 79.49-258.24-39.17-323.59zm-917.74-322.74c-33.07-325.36 19.68-336.56 133.15-124.96-91.22 34.97-133.15 124.96-133.15 124.96zm932.69 469.33a85.646 85.646 0 0 1-7.64 18.01 82.85 82.85 0 0 1-5.13 7.86c-15.61 21.36-40.59 34.24-67.52 38.47-38.64 6.13-81.35-5.63-106.39-35.85-2.84-3.4-5.46-7.08-7.81-10.98a76.916 76.916 0 0 1-4.68-8.75c-8.53-18.23 3.57-39.37 23.47-42.38 52.13-7.86 102.21-10.26 149.6-5.46 19.07 1.89 31.56 20.73 26.1 39.08z"/>
  <g class="st4">
    <path class="st0" d="M2468.73 676.93c-1.13-38.08-5.33-74.51-12.32-109-7.36-36.76-17.88-71.39-31.29-103.77a514.017 514.017 0 0 0-20.34-43.65c-14.53-27.75-31.33-53.42-50.21-77.15-63.33-79.7-149.54-135.81-249.62-163.41-85.65-23.59-181.44-26.33-281.85-5-12.55 2.64-25.1 5.66-37.75 9.11 8.59 15.81 17.88 33.74 24.82 47.33 4.34-.99 8.64-1.93 12.93-2.88 100.42-21.28 196.21-18.54 281.85 5.05 100.08 27.6 186.3 83.66 249.62 163.41 18.88 23.69 35.67 49.41 50.21 77.1a519.419 519.419 0 0 1 20.34 43.7c13.4 32.37 23.92 67.01 31.29 103.77 6.75 33.41 10.9 68.61 12.17 105.42.67-17 .72-33.65.15-50.03zM1359.96 257.39c-340.69-174.5-721.17-100.18-927.61 117.45h-.05c-63.33 66.77-110.32 147.08-134.72 237.87-14.49 53.7-20.95 111.08-18.21 171.53 1.89-40.96 8.07-80.36 18.21-117.92 24.4-90.79 71.39-171.1 134.72-237.87h.05c206.45-217.63 586.92-292 927.61-117.45 7.03 3.59 14.06 7.31 21.05 11.09.61.33 1.27.66 1.89 1.04l1.93-52.52c-1.27-.71-2.55-1.42-3.82-2.12-6.99-3.79-14.02-7.52-21.05-11.1z"/>
  </g>
  <g class="st4">
    <path class="st0" d="M2468.59 726.95c-.05 1.27-.09 2.55-.14 3.87.09.05.19.09.28.14v-.43c-.05-1.17-.09-2.4-.14-3.58zM279.36 784.24c-.19 4.48-.38 9.01-.42 13.54.38.09.8.24 1.18.38-.33-4.67-.57-9.3-.76-13.92z"/>
    <path class="st1" d="m282.88 801.87-3.64-1.37c-.29-.11-.61-.21-.9-.29l-1.92-.47.02-1.98c.04-4.56.23-9.12.42-13.63h5c.18 4.6.42 9.2.75 13.85l.27 3.89zm2188.35-66.96-5.06-2.4-.22-1.79.14-3.86 5-.01.14 8.06z"/>
  </g>
  <path class="st3" d="M2369.88 224c-1.78 33.9-6.86 73.66-15.28 119.38-63.34-79.74-149.55-135.83-249.63-163.43 24.87-20.69 48.06-38.42 69.53-53.19 136.84-94.07 204.19-66.41 195.38 97.24z"/>
  <path d="M1697.7 289.97c-91.22 34.96-133.15 124.96-133.15 124.96-33.06-325.36 19.68-336.57 133.15-124.96z" style="fill:#f97dcd"/>
  <path class="st3" d="M432.3 374.83c-39.7 41.88-72.99 89.05-98.3 140.85-4.4 9.03-8.59 18.18-12.49 27.49-3.01 7.14-5.85 14.33-8.59 21.58-5.69 15.22-10.65 30.78-15 46.67-.11.45-.22.84-.33 1.28-.28-.11-.61-.22-.89-.39-67.97-26.99-122.34-86.15-141.85-171.85-3.07-13.33-5.24-27.32-6.52-41.93-.89-9.93-1.34-20.13-1.34-30.61-.11-134.44 139.79-201.4 169.95-81.97 9.2 43.1 32.28 67.08 64.07 79.07 15.27 5.8 32.56 8.81 51.29 9.81z"/>
  <path class="st0" d="M2521.44 1061.23c-82.64 106.39-170.68 158.75-435.09 160.36H1840.5c-72.1-297.92 328.98-530.44 617.76-480.09 0 0 9.09-1.51 24.03-3.85 118.66 65.36 108.4 234.42 39.15 323.58zM243 1201.52s-3.74 5.02-10.09 12.55c-31.95-5.97-60.55-15.28-85.93-27.1h-.06c-16.67-7.75-31.95-16.67-45.83-26.49 0 0-.17-.11-.56-.39-3.46-2.34-6.8-4.85-10.04-7.42-.17-.11-.33-.28-.56-.39-173.3-135.1-108.28-416.08 143.25-366.62.11.06.17.06.17.06-43.49 36.19-72.43 73.1-88.66 110.79-30.56 71.09-2.4 154.45 63.96 194.27 54.37 32.62 83.42 67.75 34.35 110.74z"/>
  <path d="M943.18 889.24c38.51-39.73 99.07-64.53 162.23-65.02-244.82-151.55-467.07 184.87-260.45 327.33l-1.61 7.22 99.55 55.29 101.18 2.32c76.4-62.76 10.88-113.5-73.69-159.24-61.95-33.49-76.23-117.33-27.21-167.9z" style="fill:#fce5e5"/>
  <path class="st1" d="m1044.94 1218.91-102.72-2.36-.54-.3-101.18-56.21 1.66-7.41c-103.39-72.36-95.91-188.85-44.98-266.78 57.25-87.57 178.53-144.89 309.55-63.77l7.36 4.56-8.66.07c-61.94.48-121.93 24.51-160.46 64.26-22.44 23.15-32.47 54.89-27.51 87.08 5.07 33.01 24.8 61.04 54.12 76.89 51.54 27.87 104.74 61.74 108.57 101.54 2.01 20.89-9.27 41.11-34.49 61.83l-.72.6zm-101.37-7.33 99.63 2.29c23.33-19.37 33.79-37.98 31.97-56.89-3.6-37.47-55.6-70.38-105.98-97.63-30.7-16.61-51.37-45.96-56.68-80.53-5.2-33.75 5.33-67.04 28.86-91.32 37.64-38.84 95.21-63.01 155.37-65.57-125.32-72.78-240.5-17.3-295.39 66.67-49.88 76.31-57.07 190.5 45.02 260.89l1.39.96-1.58 7.04 97.39 54.09z"/>
  <path class="st0" d="M334 515.68c-14.89 30.39-26.99 62.34-36.08 95.74-.39.28-.78.61-1.23.89-67.97-26.99-122.34-86.15-141.85-171.85 0 0 4.79-72.33 74.22-52 56.82 16.63 13.27 79.82 104.94 127.22zM2127.33 504.47c0 32.35-32.58 58.58-95.11 58.58-62.54 0-102.83-26.22-102.83-58.58 0-32.35 40.29-58.58 102.83-58.58 62.53.01 95.11 26.23 95.11 58.58zM2457.54 556.19c-3.62.22-7.42.33-11.32.33-56.15 0-92.34-23.53-92.34-52.58 0-25.43 27.77-46.67 72.38-51.52 13.38 32.4 23.92 67.02 31.28 103.77z"/>
  <g class="st2">
    <path class="st1" d="M2484.47 910.12c-41.99-18.62-105.22-16.45-173.91 2.62-62.08 17.2-128.61 48.16-187.92 89.99-72.96 51.44-159.92 79.3-249.19 79.3-109.81 0-216.71-37.82-300.51-108.79-135.53-114.79-252.88-145.29-331.79-11.53-44.11 74.77-124.8 120.32-211.61 120.32h-61.45c-35.31 0-70.21-10.35-98.52-31.46-54.4-40.56-75.2-108.1-40.87-199.72-121.72 98.47-89.44 265.19 81.58 365.56 0 0 2.23 1.84 6.41 5.19h1169.66c264.41-1.62 352.45-53.97 435.09-160.36 31.22-81.48 11.04-129.87-36.97-151.12z"/>
  </g>
  <g class="st2">
    <path class="st1" d="M432.3 374.83c-39.7 41.88-72.99 89.05-98.3 140.85-4.4 9.03-8.59 18.18-12.49 27.49-3.01 7.14-5.85 14.33-8.59 21.58-5.69 15.22-10.65 30.78-15 46.67-.11.45-.22.84-.33 1.28-.28-.11-.61-.22-.89-.39-67.97-26.99-122.34-86.15-141.85-171.85-3.07-13.33-5.24-27.32-6.52-41.93l11.04-80.4c18.85-23.47 53.53-25.48 63.9 8.81 3.12 10.37 3.01 21.41.5 31.95-6.65 27.82-5.75 50 1.98 69.81 9.82 25.17 44.84 27.6 58.3 4.17 19.19-33.41 49.58-62.13 84.42-77.96 15.27 5.8 45.1 18.92 63.83 19.92z"/>
  </g>
  <g class="st2">
    <path class="st1" d="m962.29 1207.1-5.02 14.5h-650.1c-26.49-.61-51.24-3.23-74.27-7.53-31.95-5.97-60.55-15.28-85.93-27.1h-.06c-16.67-7.75-31.95-16.67-45.83-26.49 0 0-.17-.11-.56-.39-3.46-2.34-6.8-4.85-10.04-7.42-.17-.11-.33-.28-.56-.39-15.39-11.99-28.88-25.15-40.54-39.09-.28-.33-.56-.67-.84-1v-.06c-.17-.84-.89-1.73-2.23-2.68l-.06-.06c0-.06-.06-.06-.06-.06-.28-.39-.61-.72-.84-1.12-2.01-2.45-3.85-4.91-5.69-7.42-1.9-2.57-3.74-5.13-5.52-7.75-.39-.61-.84-1.23-1.23-1.84-1.73-2.62-3.4-5.24-5.02-7.92-1.84-2.96-3.57-5.97-5.24-8.98a163.53 163.53 0 0 1-4.4-8.25c-.22-.45-.5-.89-.72-1.39-1.28-2.62-2.57-5.3-3.79-7.97-.11-.22-.22-.45-.28-.67-1.23-2.73-2.4-5.46-3.51-8.2-1.73-4.24-3.35-8.48-4.74-12.71-.67-1.84-1.28-3.68-1.84-5.52a38.67 38.67 0 0 1-1-3.35c-1.51-4.8-2.79-9.65-3.85-14.5a97.2 97.2 0 0 1-.89-4.07c-.56-2.57-1.06-5.13-1.51-7.75-.45-2.34-.84-4.74-1.11-7.08-.28-1.73-.5-3.51-.67-5.24-.33-2.4-.61-4.8-.78-7.19a95.44 95.44 0 0 1-.5-8.09c-.11-.95-.17-1.84-.17-2.73-.11-2.62-.17-5.24-.17-7.86 0-18.79 2.4-37.19 7.25-54.59l.11-.22c11.15-40.04 34.96-75 70.65-98.03 11.88-5.85 21.69-10.65 28.1-13.77-61.57 33.09-75.75 112.49-40.47 187.58 32.92 70.08 104.22 115.27 181.64 115.64H573.9c44.05 0 81.35-33.07 86.04-76.89 10.37-97.3 88.6-187.69 187.46-187.69-172.49 181.86-78.42 291.09 114.89 373.34z"/>
  </g>
  <g class="st2">
    <path class="st1" d="M1697.7 289.97c-17.17 6.58-32.62 15.11-46.34 24.65-41.54-72.32-73.55-109.57-94.51-106.17 10.49-106.56 60.39-68.53 140.85 81.52z"/>
  </g>
  <g class="st2">
    <path class="st1" d="M2370.68 178.34c-1.78 33.9-7.66 119.32-16.08 165.05-63.34-79.74-149.55-135.83-249.63-163.43 24.87-20.69 70-62.15 91.46-76.93-18.58 65.08 109.66 156.16 174.25 75.31z"/>
  </g>
  <g class="st2">
    <path class="st1" d="M1370.72 626.08c-157.5-93.68-135.2-311.47-79.44-382.68l84.81 22.43-5.37 354.39"/>
  </g>
  <g class="st7">
    <path class="st0" d="M1372.13 268.83c-.22-.06-.45-.22-.72-.33-.89-.5-1.45-.78-1.73-.95.49.22 1.61.78 2.45 1.28z"/>
    <path class="st1" d="m1387.46 275.07-16.91-4.21-2.16-1.16 2.29-4.43c.55.24 1.79.86 2.72 1.42l14.06 8.38z"/>
  </g>
  <g class="st7">
    <path class="st0" d="M1380.99 273.8v93.06c-1.39-1.34-2.79-2.68-4.24-3.96-1.78-1.73-3.51-3.35-5.35-4.96V268.5c3.23 1.73 6.41 3.46 9.59 5.3z"/>
    <path class="st1" d="m1383.49 372.72-4.23-4.05c-1.49-1.43-2.8-2.69-4.16-3.9-1.84-1.77-3.54-3.36-5.35-4.96l-.85-.75v-94.74l3.68 1.96c3.26 1.74 6.46 3.49 9.67 5.34l1.25.72v100.38zm-9.59-15.9c1.56 1.39 3.05 2.8 4.59 4.29v-85.86c-1.53-.87-3.05-1.72-4.59-2.55v84.12z"/>
  </g>
  <g class="st7">
    <path class="st0" d="M1372.13 268.83c-.22-.06-.45-.22-.72-.33-.89-.5-1.45-.78-1.73-.95.49.22 1.61.78 2.45 1.28z"/>
    <path class="st1" d="m1387.46 275.07-16.91-4.21-2.16-1.16 2.29-4.43c.55.24 1.79.86 2.72 1.42l14.06 8.38z"/>
  </g>
  <g class="st4">
    <path class="st0" d="M1770.53 264.76C1534.05-45.65 1427 48.8 1381 334.57c-1.51 9.26-2.9 18.68-4.24 28.33-1.9 13.38-3.68 27.15-5.35 41.26V268.5c3.23 1.73 6.41 3.46 9.59 5.3.33.17.67.39 1 .56l.06.06c41.15-279.35 149.04-361.1 376.88-85.65 18.34-5.41 3.51 11.54 21.58 7.69-2.12 35.57 29.05 41.6 29.05 41.6 12.98 23.91-12.45 52.24-39.04 26.7z"/>
  </g>
  <g class="st4">
    <path class="st0" d="M2369.88 224c-1.78 33.9-6.86 73.66-15.28 119.38-4.01-5.07-8.14-10.09-12.43-14.94v-.06c3.46-24.65 5.74-47.06 6.8-67.41 8.81-163.71-58.55-191.31-195.38-97.24a798.332 798.332 0 0 0-30.05 21.75c-6.13-1.95-12.32-3.79-18.57-5.52 24.87-20.69 48.06-38.42 69.53-53.19 136.84-94.08 204.19-66.42 195.38 97.23z"/>
  </g>
  <g class="st4">
    <path class="st0" d="M174.69 291.25c29.3-23.53 56.69-36.76 79.4-24.78 10.29 5.42 17.24 15.54 20.15 26.79 9.96 38.59 26.78 71.56 81.67 73.27L334 305.19l-36.74-60.24-48.68-21.08c-38.11 13.23-59.33 38.02-73.89 67.38z"/>
  </g>
  <path class="st1" d="M285.86 869.73c-9.17 0-17.22-6.69-18.64-16.04-35.28-232.25 57.15-443.3 253.59-579.06 247.91-171.32 593.35-177.89 880.02-16.73 1.26.71 2.44 1.56 3.51 2.54 7.69 7.05 8.23 19.01 1.19 26.7-6.25 6.82-16.34 8.02-23.9 3.27-274.05-153.74-603.43-147.77-839.36 15.27-184.11 127.24-270.76 324.91-237.73 542.33 1.56 10.31-5.52 19.93-15.83 21.5-.95.15-1.91.22-2.85.22z"/>
  <path class="st1" d="M319.92 1240.65c-151.48 0-271.58-64.51-322.49-174.23-39.39-84.91-29.14-179.83 26.12-241.81 57.45-64.43 153.13-80.59 262.51-44.37 9.9 3.28 15.26 13.96 11.99 23.85-3.28 9.9-13.97 15.25-23.85 11.99-95.82-31.73-174.83-19.78-222.47 33.65-44.54 49.96-52.6 130.66-20.05 200.81 22.06 47.55 95.56 157.49 301.88 152.19l1726.97-.01c4.38.03 8.75.04 13.04.04 266.65 0 352.66-49.76 432.97-153.11 40.83-52.59 57.4-131.33 41.24-195.92-8.59-34.32-30.66-80.52-87.01-105.7a18.87 18.87 0 0 1-11.16-18.02c7.98-190.51-57.86-350.29-185.4-449.93-128.55-100.43-307.28-127.11-490.36-73.21-10.01 2.92-20.5-2.77-23.44-12.77-2.94-10 2.77-20.49 12.77-23.44 194.93-57.39 386-28.33 524.26 79.67 134.59 105.14 205.45 271.28 200.3 468.84 49.2 25.75 82.5 68.85 96.65 125.39 18.83 75.24-.48 166.97-48.05 228.24-87.96 113.2-180.5 167.69-462.61 167.7-4.41 0-8.81-.01-13.32-.04H334.05c-4.73.13-9.45.19-14.13.19z"/>
  <path class="st1" d="M1806.68 247.19c-20.75-10.95-35.54-26.1-49.81-41.65-14.37-15.45-27.5-31.83-41.09-47.78-13.53-16.02-28.19-30.94-43.34-45.09-15.14-14.15-30.85-27.52-47.3-39.32-16.4-11.86-33.74-21.84-51.44-28.58-17.69-6.42-35.75-9.19-51.78-5-16.09 3.88-30.41 14.45-42.41 28.7-5.94 7.2-11.27 15.24-16.21 23.67-4.79 8.57-9.25 17.47-13.17 26.76-15.8 37.19-25.64 78.02-33.34 119.09-7.63 41.2-12.65 83.14-16.55 125.24-3.78 42.12-6.28 84.46-7.93 126.88l-1.06 31.83c-.3 10.62.25 21.25.46 31.88.12 10.62-.46 21.24-2.34 31.84-2.03 10.61-5.18 21.21-12.36 31.83l-.03.05c-2.33 3.44-7.01 4.35-10.45 2.02a7.765 7.765 0 0 1-2.1-2.14c-6.96-10.73-10.04-21.48-11.74-32.23-1.59-10.74-1.88-21.48-1.26-32.2.59-10.72 1.77-21.43 2.04-32.15l1.12-32.19c1.67-42.92 4.2-85.87 8.06-128.82 3.97-42.93 9.1-85.89 17.02-128.69 8.06-42.74 18.18-85.56 35.77-127.1 4.39-10.38 9.48-20.61 15.12-30.66 5.85-10 12.32-19.81 19.99-29.09 7.78-9.2 16.73-17.87 27.19-25.11 10.42-7.25 22.45-12.92 35.15-16.04 12.68-3.13 25.88-3.85 38.33-2.39 12.49 1.41 24.33 4.59 35.56 8.62 22.25 8.46 42.12 20.17 60.31 33.28 36.57 26.16 67.3 57.55 97.5 88.83 7.66 7.76 15.01 15.74 22.29 23.81 7.03 8.25 14 16.57 20.3 25.39 6.43 8.72 12.6 17.63 17.63 27.39 5.1 9.71 9.4 19.98 11.9 31.53a6.938 6.938 0 0 1-5.32 8.25c-1.66.35-3.31.07-4.71-.66zM2354.64 362.26c-1.13 0-2.28-.1-3.43-.31-10.25-1.88-17.04-11.73-15.15-21.98 33.84-183.98 5.31-231.1-14.71-242.81-19.16-11.2-71.17-13.44-204.27 97.31-8.02 6.67-19.92 5.58-26.58-2.43-6.67-8.01-5.58-19.92 2.43-26.58 118.26-98.42 196.9-130.5 247.48-100.88 52.17 30.51 62.58 120.19 32.78 282.22-1.68 9.1-9.62 15.46-18.55 15.46z"/>
  <path class="st1" d="M1564.55 431.43c-.92 0-1.85-.08-2.78-.23-7.32-1.25-12.91-7.22-13.66-14.6-23.82-234.59-.49-275.07 28.27-283.86 33.99-10.42 73.37 32.89 135.88 149.42 2.24 4.18 2.58 9.12.92 13.57a16.55 16.55 0 0 1-9.57 9.66c-83.61 32.05-123.72 115.7-124.11 116.54-2.76 5.86-8.63 9.5-14.95 9.5zm21.58-267.09h-.19c-2.59 1.28-24.43 17.74-9.45 200.39 20.35-27.1 52.61-60.9 98.06-82.75-63.1-114.33-86.02-117.64-88.42-117.64zM297.58 631.59c-2.29 0-4.63-.42-6.89-1.31-101.94-40.01-162.71-138.1-162.58-262.37-.09-91.37 59.29-155.38 114.36-162.26 34.51-4.29 76.99 13.31 92.75 75.66.05.22.11.44.15.66 10.46 48.69 39.78 70.82 98.04 73.99 10.41.57 18.39 9.46 17.82 19.87-.57 10.4-9.44 18.45-19.87 17.82-75.18-4.09-118.63-37.92-132.82-103.41-8.55-33.48-26.89-50.21-51.39-47.14-39.31 4.91-81.35 56.23-81.28 124.8-.12 108.18 51.69 193.12 138.61 227.24 9.71 3.81 14.48 14.76 10.67 24.46-2.92 7.44-10.04 11.99-17.57 11.99zM1074.74 1240.66c-162.97 0-279.71-59.93-320.44-164.58-31.88-81.9-8.47-177.83 58.26-238.69 79.44-72.47 200.06-79.19 322.66-17.99 9.33 4.66 13.11 16 8.46 25.32-4.66 9.32-15.99 13.1-25.32 8.46-109.69-54.78-211.89-50.36-280.36 12.1-55.28 50.42-74.78 129.63-48.52 197.1 34.78 89.36 138.71 140.52 285.25 140.52.63 0 1.23.04 1.88 0 10.4 0 18.84 8.42 18.88 18.82.03 10.42-8.4 18.9-18.82 18.93-.65.01-1.29.01-1.93.01zM1923.48 634.35c16.1 16.3 32.33 29.65 49.96 39.04 17.5 9.44 36.03 15.04 54.54 16.23 18.55 1.24 36.78-2.15 54.33-9.64 8.75-3.83 17.34-8.75 25.77-14.76 8.46-6 16.56-13.14 25.17-20.96l.13-.12a4.937 4.937 0 0 1 6.98.33 4.975 4.975 0 0 1 1.19 4.26c-4.64 23.97-19.24 46.85-40.73 62.4-21.34 15.77-49.34 23.13-75.99 20.66-26.73-2.22-52.06-13.4-71.41-30.26-19.37-16.87-33.03-39.13-38.28-62.76-.59-2.64 1.08-5.25 3.72-5.84 1.69-.38 3.38.18 4.52 1.32l.1.1zM2338.04 623.87c13.72 19.91 33.22 34.75 54.32 40.74 10.5 3.04 21.26 3.92 31.36 2.65 10.11-1.25 19.53-4.64 27.54-9.72 10-6.34 23.25-3.37 29.58 6.64 6.34 10 3.36 23.25-6.64 29.58-1.4.89-2.87 1.59-4.37 2.12l-1.22.42c-14.79 5.11-30.41 6.73-45.23 5.17-14.85-1.54-28.91-6.18-41.3-13.03-24.95-13.73-42.68-36.12-52.39-60.16-.98-2.43.2-5.2 2.62-6.17 2.1-.85 4.45-.09 5.68 1.7l.05.06zM2298.05 893.02c37.3 80.15 174.46 74.89 199.19-8.77 5.43-18.37-7.03-37.17-26.08-39.1-47.41-4.8-97.5-2.37-149.61 5.48-19.92 3.01-32 24.12-23.5 42.39z"/>
  <path class="st1" d="M2434.66 915.98c4.77 13.24 5.88 26.93 5.48 40.1-.54 13.21-2.94 26.05-6.73 38.37-3.82 12.31-9.05 24.16-16.23 35.08-3.58 5.48-7.68 10.66-12.36 15.5-4.64 4.75-10.12 9.26-16.43 12.39-3.65 1.81-8.08.32-9.9-3.33a7.33 7.33 0 0 1-.36-5.7l.39-1.12c3.57-10.18 5.87-20.43 7.91-30.89 1.94-10.45 3.56-20.9 4.74-31.26 1.18-10.37 1.9-20.63 2.2-30.64.42-10.02.1-19.71-.16-29.18l-.04-1.48c-.32-11.8 8.99-21.63 20.79-21.95 9.47-.27 17.65 5.68 20.7 14.11z"/>
  <path d="M1134.17 177.76s-216.55 80.49-199.79 1044.03v680.68c0 91.75-339.51 91.75-339.51 0v-686.08c25.95-380.62-49.44-850.94 209.81-1040.17 106.57-66.73 254.98-73.2 329.49 1.54z" style="fill:#6d445b"/>
  <g class="st2">
    <path class="st1" d="M934.38 1739.52v117.97c0 91.73-339.52 91.73-339.52 0v-117.97c0 91.73 339.52 91.73 339.52 0z"/>
  </g>
  <g class="st4">
    <path class="st0" d="M1134.17 177.73s-13.78 5.14-34.16 28.27c-79.89-45.82-203.24-33.17-295.35 24.49-259.25 189.22-183.84 659.54-209.8 1040.16v-54.27c25.95-380.61-49.45-850.93 209.8-1040.16 106.59-66.72 255-73.18 329.51 1.51z"/>
  </g>
  <path class="st1" d="M764.62 1990.16c-87.02 0-188.63-22.97-188.63-87.69v-686.08c0-.43.01-.85.04-1.28 6-87.92 6.56-182.62 7.1-274.21 1.85-309.27 3.75-629.07 210.41-779.91.36-.26.73-.52 1.11-.75 120.38-75.38 275.4-73.52 352.89 4.2 4.66 4.67 7.03 11.28 5.44 17.69-1.56 6.33-5.81 11.23-11.98 13.25-3.7 1.82-52.59 28.13-99.47 161.16-44.92 127.45-96.69 380.97-88.28 864.93v681.01c0 64.71-101.61 87.68-188.63 87.68zm-150.88-773.13v685.44c0 27.54 67.69 49.94 150.88 49.94 83.2 0 150.88-22.4 150.88-49.94v-680.68c-6.98-401.63 24.91-701.14 94.79-889.9 34.09-92.08 69.78-135.61 92.83-155.69-69.44-49.15-192.37-43.83-287.87 15.67C624.5 331.66 622.67 641.48 620.89 941.12c-.56 91.94-1.12 187.01-7.15 275.91z"/>
  <path d="M1126.81 836.29 1096 1072.94l-19.35 148.64-.05.19c-5.57 0-11.04-.05-16.42-.19-302.99-6.7-353.48-226.12-256.61-347.07 0-.09.09-.14.14-.19 59.88-74.56 175.78-111.55 323.1-38.03z" style="fill:#f99b28"/>
  <path class="st0" d="M943.18 889.24c38.51-39.73 99.07-64.53 162.23-65.02-244.82-151.55-467.07 184.87-260.45 327.33l-1.61 7.22 99.55 55.29 101.18 2.32c76.4-62.76 10.88-113.5-73.69-159.24-61.95-33.49-76.23-117.33-27.21-167.9z"/>
  <path class="st1" d="M1074.74 1240.66c-162.97 0-279.71-59.93-320.44-164.58-31.88-81.9-8.47-177.83 58.26-238.69 79.44-72.47 200.06-79.19 322.66-17.99 9.33 4.66 13.11 16 8.46 25.32-4.66 9.32-15.99 13.1-25.32 8.46-109.69-54.78-211.89-50.36-280.36 12.1-55.28 50.42-74.78 129.63-48.52 197.1 34.78 89.36 138.71 140.52 285.25 140.52.63 0 1.23.04 1.88 0 10.4 0 18.84 8.42 18.88 18.82.03 10.42-8.4 18.9-18.82 18.93-.65.01-1.29.01-1.93.01z"/>
  <g class="st2">
    <path class="st1" d="m1095.99 1072.93-19.35 148.64H916.68c-4.2-3.3-6.42-5.14-6.42-5.14-157.98-92.72-197.57-242.12-106.69-341.92 0-.09.09-.14.14-.19 7.46-8.16 15.76-16 24.96-23.45-34.31 91.59-13.5 159.16 40.86 199.7 28.31 21.09 63.23 31.47 98.53 31.47h61.49c22.75 0 45.12-3.12 66.44-9.11z"/>
  </g>
  <g class="st2">
    <path class="st1" d="M1200.76 1615.5c.2-7.71 1.91-15.51 5.26-23.06 3.38-7.51 8.72-14.67 15.92-20.35 7.17-5.66 16.34-9.57 26-10.6 9.63-1.1 19.67.47 28.49 4.57 8.85 4.05 16.54 10.57 22.01 18.51 5.52 7.92 8.7 17.27 9.27 26.41.65 9.14-1.06 18-4.46 25.59-3.4 7.61-8.19 14.15-14.08 19.33a4.4 4.4 0 0 1-7.29-3.64l.02-.28c.55-7.3 1.11-13.85.83-19.95-.21-6.08-1.35-11.55-3.03-16.26-3.48-9.39-9.6-15.94-17.28-19.97-7.8-3.7-16.74-4.56-26.09-.85-4.66 1.86-9.5 4.79-14.08 8.85-4.65 4.03-8.98 8.99-13.7 14.44l-.17.2a4.339 4.339 0 0 1-6.12.44 4.314 4.314 0 0 1-1.5-3.38z"/>
  </g>
  <g class="st2">
    <path class="st1" d="M1491.19 1704.45c6.65 3.91 12.65 9.18 17.63 15.77 4.93 6.59 8.61 14.74 10.09 23.78 1.48 9.02.46 18.93-3.32 27.88-3.7 8.96-9.93 16.98-17.8 22.71-7.83 5.79-17.26 9.35-26.85 10.3-9.6 1-19.33-.75-27.6-4.69-8.31-3.86-15.23-9.64-20.23-16.3-5.01-6.67-8.42-14.02-10.09-21.68-.52-2.38.99-4.72 3.36-5.24a4.35 4.35 0 0 1 3.34.62l.24.15c6.12 4.02 11.58 7.68 17.06 10.39 5.42 2.76 10.75 4.41 15.69 5.22 9.9 1.5 18.6-.68 25.84-5.45 7.02-5.03 12.1-12.43 13.37-22.41.63-4.98.41-10.63-.92-16.61-1.27-6.01-3.52-12.21-6-18.97l-.09-.24a4.34 4.34 0 0 1 2.58-5.57c1.26-.46 2.62-.29 3.7.34z"/>
  </g>
  <g class="st2">
    <path class="st1" d="M417.7 1409.73c6.65 3.91 12.65 9.18 17.63 15.77 4.93 6.59 8.61 14.74 10.09 23.78 1.48 9.02.46 18.93-3.32 27.88-3.7 8.96-9.93 16.98-17.8 22.71-7.83 5.79-17.26 9.35-26.85 10.3-9.6 1-19.33-.74-27.6-4.68-8.31-3.86-15.23-9.64-20.23-16.3-5.01-6.66-8.42-14.02-10.09-21.67a4.402 4.402 0 0 1 6.7-4.63l.23.16c6.12 4.02 11.58 7.68 17.06 10.39 5.42 2.76 10.75 4.41 15.69 5.22 9.91 1.5 18.6-.69 25.84-5.45 7.02-5.03 12.1-12.44 13.37-22.41.63-4.98.41-10.63-.92-16.61-1.27-6.01-3.52-12.21-6-18.97l-.09-.24c-.82-2.25.33-4.74 2.58-5.57 1.28-.48 2.64-.31 3.71.32z"/>
  </g>
  <path class="st0" d="M319.34 1283.51c-5.54-166.89 153.55-151.36 140 11.81"/>
  <path class="st1" d="m461.83 1295.53-4.98-.41c4.57-55.03-10.67-99.35-40.77-118.54-16.92-10.8-36.21-11.53-52.92-2.01-28.03 15.98-43.09 55.65-41.32 108.86l-5 .17c-1.83-55.12 14.16-96.44 43.85-113.36 18.37-10.47 39.54-9.69 58.08 2.13 31.69 20.2 47.78 66.25 43.06 123.16z"/>
  <path class="st1" d="M314.63 1283.67c-6.08-26.62-6.78-55.73 4.08-84.22 5.56-14.05 14.51-28.02 28.16-38.47 1.58-1.41 3.54-2.45 5.35-3.64 1.88-1.1 3.63-2.39 5.66-3.29 4.03-1.84 8.06-3.7 12.47-4.74 4.28-1.41 8.8-1.87 13.3-2.43 2.25-.18 4.52-.04 6.78-.03 2.27-.01 4.52.13 6.73.54 9.04.89 17.37 4.25 25.08 8.16 7.44 4.28 14.36 9.38 19.84 15.45 11.36 11.89 18.75 26.05 23.18 40.36 8.79 28.8 7.02 58.1-1.2 84.36-.8 2.55-3.51 3.97-6.05 3.17a4.854 4.854 0 0 1-3.31-3.71l-.04-.24c-2.48-13.17-4.24-25.86-7.51-37.94-3.17-12.04-7.06-23.5-12.14-33.81-5.1-10.27-11.48-19.34-18.87-26.12-.93-.83-1.82-1.73-2.76-2.52l-2.94-2.11c-1.87-1.6-4-2.44-5.93-3.76-1.02-.52-2.07-.87-3.09-1.35-1.02-.48-2.03-.95-3.09-1.16l-3.09-1.01-3.12-.52c-8.31-1.28-16.69.57-24.64 5.46-7.85 5.03-15.13 12.95-20.87 22.69-5.82 9.72-10.27 21.01-13.87 32.92-3.78 11.94-5.88 24.62-8.64 37.65l-.05.24c-.55 2.6-3.1 4.26-5.69 3.71a4.83 4.83 0 0 1-3.73-3.64z"/>
  <path class="st0" d="M1197.39 1245.21c73.26-150.06 206.56-61.83 118.16 76"/>
  <path class="st1" d="m1317.66 1322.56-4.21-2.7c29.81-46.48 37.09-92.77 19.5-123.83-9.9-17.47-26.72-26.96-45.82-26.55-32.25.99-64.14 28.99-87.49 76.83l-4.49-2.2c24.19-49.56 57.67-78.58 91.83-79.63 21.19-.53 39.47 9.96 50.32 29.09 18.53 32.69 11.19 80.92-19.64 128.99z"/>
  <g>
    <path class="st1" d="M1193.15 1243.14c7.09-26.37 20.1-52.41 43.05-72.5 11.49-9.81 25.94-17.96 42.89-20.81 2.06-.5 4.27-.51 6.43-.71 2.18-.1 4.33-.42 6.54-.26 4.42.26 8.85.51 13.23 1.65 4.44.76 8.65 2.47 12.89 4.08 2.08.89 4.01 2.08 6 3.14 2.01 1.06 3.93 2.23 5.69 3.63 7.58 5.02 13.36 11.88 18.34 18.96 4.57 7.27 8.3 15.02 10.3 22.94 4.46 15.82 4.37 31.8 1.57 46.52-5.72 29.57-21.01 54.62-40.56 73.98a4.844 4.844 0 0 1-6.84-.03 4.825 4.825 0 0 1-1.18-4.83l.07-.23c3.98-12.8 8.37-24.84 11.13-37.04 2.84-12.13 4.77-24.07 5.11-35.56.3-11.47-1.09-22.47-4.45-31.92-.43-1.17-.79-2.38-1.25-3.52l-1.61-3.24c-.9-2.29-2.39-4.03-3.48-6.1-.66-.93-1.42-1.74-2.09-2.64-.67-.9-1.35-1.79-2.19-2.47l-2.26-2.34-2.52-1.93c-6.74-5.03-15.01-7.31-24.33-6.71-9.29.76-19.43 4.35-29.06 10.27-9.69 5.86-18.91 13.76-27.68 22.59-8.93 8.78-16.73 19-25.26 29.22l-.15.19a4.805 4.805 0 0 1-6.77.61c-1.48-1.24-2.02-3.19-1.56-4.94z"/>
  </g>
  <g>
    <path class="st0" d="M2007.61 1285.18c-9.64-166.71 149.79-155.08 140.24 8.38"/>
    <path class="st1" d="m2150.34 1293.7-4.99-.29c3.22-55.13-13.1-99.05-43.66-117.5-17.18-10.38-36.48-10.63-52.94-.71-27.63 16.66-41.72 56.7-38.65 109.84l-4.99.29c-3.18-55.06 11.78-96.76 41.05-114.41 18.09-10.91 39.28-10.66 58.12.71 32.17 19.43 49.39 65.06 46.06 122.07z"/>
    <g class="st2">
      <path class="st1" d="M2007.61 1285.18c-9.64-166.71 149.79-155.08 140.24 8.38"/>
    </g>
    <g>
      <path class="st1" d="M2002.9 1285.46c-6.74-26.46-8.14-55.54 2.01-84.3 5.22-14.18 13.82-28.36 27.2-39.15 1.55-1.45 3.48-2.53 5.26-3.76 1.85-1.15 3.57-2.48 5.57-3.43 3.98-1.94 7.97-3.89 12.35-5.05 4.25-1.51 8.75-2.08 13.23-2.75 2.25-.24 4.51-.15 6.77-.2 2.27-.06 4.52.02 6.74.38 9.06.66 17.47 3.82 25.27 7.54 7.54 4.1 14.58 9.03 20.21 14.95 11.64 11.61 19.38 25.58 24.16 39.78 9.49 28.58 8.44 57.91.87 84.37a4.83 4.83 0 0 1-5.97 3.32 4.852 4.852 0 0 1-3.4-3.63l-.05-.24c-2.8-13.11-4.87-25.75-8.44-37.75-3.47-11.96-7.63-23.32-12.97-33.5-5.35-10.15-11.95-19.05-19.51-25.65-.95-.81-1.86-1.69-2.82-2.45l-3-2.04c-1.91-1.55-4.06-2.34-6.02-3.61-1.03-.49-2.09-.82-3.12-1.27-1.03-.46-2.06-.9-3.12-1.08l-3.11-.93-3.14-.45c-8.34-1.08-16.67.98-24.5 6.06-7.73 5.22-14.81 13.32-20.31 23.19-5.58 9.86-9.75 21.25-13.06 33.25-3.49 12.03-5.28 24.76-7.71 37.85l-.04.24a4.81 4.81 0 0 1-5.6 3.85 4.808 4.808 0 0 1-3.75-3.54z"/>
    </g>
  </g>
  <g>
    <path class="st0" d="M970.48 1572.16c-102.12-18.28-72.05-112.93 25.33-83.53"/>
    <path class="st1" d="M970.04 1574.62c-34.09-6.1-57.39-21.41-63.93-41.99-4.09-12.87-.79-25.97 9.06-35.97 16.64-16.88 47.06-20.79 81.37-10.42l-1.45 4.79c-32.5-9.82-61.04-6.4-76.36 9.15-8.5 8.63-11.36 19.9-7.85 30.94 5.96 18.76 27.85 32.82 60.04 38.58l-.88 4.92z"/>
    <g>
      <path class="st1" d="M969.86 1575.64c-17.15.91-35.27-2.08-51.75-12.43-8.09-5.25-15.77-12.68-20.62-22.77-2.32-5.05-4.07-10.66-4.31-16.57-.32-2.93-.01-5.9.24-8.86.57-2.89 1.06-5.88 2.17-8.6 3.86-11.28 12.13-20 21.15-25.4 9.07-5.54 18.97-8.19 28.48-8.93 19.13-1.4 36.89 3.96 51.62 13.15a3.664 3.664 0 0 1-1.8 6.77l-.25.01c-8.43.27-16.33-.18-24.02.6-7.64.61-14.94 1.67-21.61 3.52-13.29 3.67-24.02 11.08-27.05 19.82-1.64 4.3-1.71 8.91-.04 13.96 1.77 4.99 5.28 10.25 10.18 14.95 4.86 4.76 10.93 8.99 17.5 12.93 6.57 4.05 13.9 7.13 21.35 10.88l.19.1c1.79.9 2.51 3.08 1.61 4.88-.6 1.2-1.79 1.92-3.04 1.99z"/>
    </g>
  </g>
  <g>
    <path class="st0" d="M517.43 1625.27c119.06-56.82 158.16 63.26 35.75 105.08"/>
    <path class="st1" d="m553.98 1732.71-1.62-4.74c41.1-14.04 68.22-38.93 72.57-66.6 2.43-15.47-3.07-29.48-15.09-38.44-20.27-15.12-53.57-13.45-91.33 4.58l-2.16-4.51c39.51-18.86 74.67-20.34 96.48-4.08 13.55 10.1 19.77 25.86 17.04 43.22-4.64 29.55-33.01 55.92-75.89 70.57z"/>
    <g>
      <path class="st1" d="M515.49 1621.21c17.04-13.67 37.98-24.01 62.68-25.52 12.25-.58 25.7 1.41 38.18 8.24 3.09 1.7 6.08 3.8 8.95 6.02 2.76 2.44 5.51 4.9 7.8 7.9 2.5 2.8 4.38 6.09 6.32 9.34.89 1.66 1.55 3.44 2.3 5.17.76 1.74 1.41 3.5 1.84 5.32 2.34 7.21 2.57 14.66 2.14 21.82-.78 7.07-2.39 13.99-5.17 20.09-5.27 12.45-13.53 22.52-22.81 30.34-18.73 15.63-41.06 23.25-63.08 24.68a4.651 4.651 0 0 1-4.95-4.35c-.1-1.61.62-3.09 1.81-4l.23-.17c8.54-6.45 16.94-12.04 24.37-18.42 7.44-6.29 14.19-12.81 19.72-19.66 11.01-13.64 16.6-29.26 13.25-40.53-1.49-5.66-4.84-10.47-10.3-14.45-5.53-3.84-13.06-6.67-21.6-7.9-8.55-1.3-17.96-1.22-27.66-.36-9.78.73-19.67 2.88-30.13 4.57l-.25.04c-2.52.41-4.89-1.31-5.3-3.83-.29-1.7.41-3.34 1.66-4.34z"/>
    </g>
  </g>
  <g class="st2">
    <path class="st1" d="M371.29 1764.65c-7.66-.93-15.26-3.36-22.46-7.41-7.16-4.07-13.79-10.07-18.75-17.76-4.96-7.68-7.99-17.17-8.1-26.88-.19-9.69 2.32-19.53 7.24-27.93 4.86-8.43 12.08-15.47 20.5-20.17 8.4-4.75 18.02-7.04 27.17-6.74 9.16.22 17.82 2.75 25.06 6.86 7.26 4.1 13.32 9.48 17.91 15.84 1.43 1.97.98 4.72-.99 6.15-1 .72-2.19.96-3.31.77l-.28-.05c-7.22-1.24-13.68-2.41-19.78-2.71-6.08-.36-11.62.26-16.47 1.48-9.68 2.58-16.78 8.06-21.5 15.32-4.42 7.41-6.12 16.23-3.3 25.89 1.41 4.82 3.87 9.91 7.48 14.86 3.57 5 8.11 9.79 13.08 15l.18.19a4.332 4.332 0 0 1-.14 6.13c-1 .91-2.31 1.3-3.54 1.16z"/>
  </g>
  <g class="st2">
    <path class="st1" d="M1371 1438.51c-.46-7.7.58-15.62 3.28-23.42a54.54 54.54 0 0 1 14.13-21.63c6.66-6.25 15.47-10.93 25-12.77 9.5-1.92 19.63-1.2 28.77 2.13 9.16 3.28 17.38 9.13 23.51 16.57 6.17 7.42 10.14 16.47 11.48 25.53 1.42 9.05.47 18.02-2.27 25.88-2.74 7.87-6.95 14.8-12.38 20.45-1.68 1.76-4.47 1.81-6.23.13a4.346 4.346 0 0 1-1.35-3.12v-.28c-.07-7.32-.08-13.89-.87-19.95-.73-6.04-2.33-11.39-4.4-15.94-4.27-9.06-10.93-15.07-18.92-18.42-8.08-3.03-17.07-3.12-26.06 1.37-4.48 2.25-9.06 5.58-13.28 10.01-4.29 4.4-8.18 9.73-12.42 15.55l-.15.21a4.336 4.336 0 0 1-6.06.96c-1.09-.8-1.7-2.02-1.78-3.26z"/>
  </g>
</svg>
